<?xml version="1.0" standalone="no"?>
<!DOCTYPE svg PUBLIC "-//W3C//DTD SVG 20010904//EN"
 "http://www.w3.org/TR/2001/REC-SVG-20010904/DTD/svg10.dtd">
<svg version="1.0" xmlns="http://www.w3.org/2000/svg"
 width="2048.000000pt" height="2048.000000pt" viewBox="0 0 2048.000000 2048.000000"
 preserveAspectRatio="xMidYMid meet">

<g transform="translate(0.000000,2048.000000) scale(0.100000,-0.100000)"
fill="#000000" stroke="none">
<path d="M6664 14459 c-417 -40 -780 -290 -967 -664 -44 -89 -82 -202 -104
-313 -17 -82 -18 -260 -18 -3247 0 -2626 2 -3173 14 -3235 88 -485 450 -861
931 -966 82 -18 214 -19 3885 -19 l3800 0 55 26 c116 54 173 134 190 265 7 50
10 361 8 844 l-3 765 -935 5 -935 6 -105 26 c-250 62 -450 164 -625 318 -238
209 -407 505 -472 827 -28 139 -25 426 5 562 141 629 630 1074 1254 1141 59 6
432 10 953 10 l855 0 0 818 c0 706 -2 825 -15 870 -21 68 -105 161 -177 193
-52 23 -61 24 -365 27 l-313 3 0 719 c0 701 0 719 -21 786 -18 57 -31 77 -82
129 -44 44 -80 69 -122 86 l-60 24 -3275 1 c-1801 1 -3311 -2 -3356 -7z m6233
-693 c3 -2 2 -239 -2 -525 l-8 -521 -3092 0 c-2801 0 -3096 2 -3146 16 -230
68 -389 278 -389 514 0 258 205 492 455 519 69 8 6174 5 6182 -3z"/>
<path d="M12616 10569 c-242 -36 -470 -147 -649 -318 -188 -178 -312 -408
-361 -670 -21 -108 -21 -321 -1 -437 86 -488 458 -870 955 -981 66 -14 187
-17 1035 -20 684 -3 979 -1 1025 7 150 26 252 126 279 275 15 79 15 1774 1
1864 -20 119 -87 211 -190 260 l-55 26 -990 1 c-544 1 -1017 -2 -1049 -7z
m1604 -1209 l0 -531 -762 3 -763 3 -69 27 c-240 93 -383 328 -348 572 30 210
186 385 394 440 44 12 187 15 801 15 l747 1 0 -530z"/>
</g>
</svg>
