<?xml version="1.0" standalone="no"?>
<!DOCTYPE svg PUBLIC "-//W3C//DTD SVG 20010904//EN"
 "http://www.w3.org/TR/2001/REC-SVG-20010904/DTD/svg10.dtd">
<svg version="1.0" xmlns="http://www.w3.org/2000/svg"
 width="1024.000000pt" height="1024.000000pt" viewBox="0 0 1024.000000 1024.000000"
 preserveAspectRatio="xMidYMid meet">

<g transform="translate(0.000000,1024.000000) scale(0.100000,-0.100000)"
fill="#000000" stroke="none">
<path d="M3494 7190 c-117 -30 -190 -73 -279 -164 -82 -83 -121 -146 -161
-266 -18 -53 -19 -124 -22 -1615 -3 -1684 -4 -1639 49 -1762 52 -121 168 -241
287 -295 134 -61 24 -58 1937 -58 1680 0 1752 1 1790 19 48 22 79 54 100 103
13 32 15 103 15 477 l0 440 -457 3 -458 3 -75 29 c-207 79 -352 245 -395 451
-59 280 83 565 340 686 122 57 140 59 612 59 l433 0 0 440 c0 375 -2 446 -15
478 -21 49 -52 81 -100 103 -38 18 -110 19 -1775 19 -1405 1 -1742 3 -1772 14
-56 20 -111 69 -143 128 -24 44 -29 65 -30 123 0 60 4 78 31 125 35 62 96 114
152 130 25 6 512 10 1465 10 l1427 0 0 -125 0 -125 171 0 170 0 -3 233 -3 234
-27 40 c-16 24 -44 49 -70 62 l-44 21 -1540 -1 c-1470 0 -1542 -1 -1610 -19z"/>
<path d="M6327 4956 c-120 -43 -193 -148 -191 -276 1 -112 59 -206 156 -254
l52 -26 538 0 538 0 0 285 0 285 -527 0 c-418 -1 -536 -4 -566 -14z"/>
</g>
</svg>
